# xmcd CD database file
#
# Track frame offsets:
#	150
#	12612
#	26752
#	41417
#	54887
#	66990
#	80370
#	93520
#	104867
#	117712
#
# Disc length: 1818 seconds
#
# Revision: 0
# Processed by: cddbd v1.5.2PL0 Copyright (c) Steve Scherf et al.
# Submitted via: CDex 1.51
#
DISCID=8a07180a
DTITLE=Rübezahl and Buffalo - Legends Of The World
DYEAR=1900
DGENRE=Country
TTITLE0=The Legends Of The World (Thema Song)
TTITLE1=Blue Valley
TTITLE2=Buffalo Bill (The Story)
TTITLE3=On My Way With My Harley
TTITLE4=I´ll Be Back
TTITLE5=Ride Cowboy Ride
TTITLE6=No Cigarettes, No Whiskey
TTITLE7=Born To Rock
TTITLE8=We´ll Be Free
TTITLE9=Sir Lancelot (Legendery English Hero)
EXTD=
EXTT0=
EXTT1=
EXTT2=
EXTT3=
EXTT4=
EXTT5=
EXTT6=
EXTT7=
EXTT8=
EXTT9=
PLAYORDER=
